<?xml version="1.0" encoding="UTF-8"?>
<svg id="Layer_1" xmlns="http://www.w3.org/2000/svg" version="1.1" viewBox="0 0 810 145">
  <!-- Generator: Adobe Illustrator 30.4.0, SVG Export Plug-In . SVG Version: 2.1.4 Build 226)  -->
  <defs>
    <style>
      .st0 {
        fill: #ffcb1c;
      }

      .st1 {
        fill-rule: evenodd;
      }

      .st1, .st2 {
        fill: #524935;
      }
    </style>
  </defs>
  <g>
    <g id="V">
      <path class="st2" d="M126.5,22c0-.1,0-.2-.1-.2h-1.6c-6.7,0-18.6,3.6-18.6,3.6-.1,0-.2.1-.2.2l-14.9,32.1c0,.1,0,.2.1.2h18.6c.1,0,.2,0,.3-.2l16.7-35.8h-.1Z"/>
      <g id="original">
        <path class="st2" d="M83,75.3c-.1,0-.2,0-.3.2l-5.1,10.9c0,.1-.1.2-.2.3v.2c-.1.1-.2.2-.3.3l-7.5,16.1c0,.1-.1.1-.2,0l-10.1-21.5c0-.1-.1-.2-.2-.3L24,5.3c0-.1-.2-.2-.3-.2H5.1c-.1,0-.2,0-.1.2l55.1,118.2c0,.1.1.2.2.3l7.6,16.4c0,.1.2.2.3.2h3c.1,0,.2,0,.3-.2l7.6-16.4c0-.1.1-.2.2-.3l.4-.7c0-.1.1-.2.2-.3l7.3-15.6c0-.1.1-.2.2-.3l.6-1.3c0-.1.1-.2.2-.3l13.8-29.5c0-.1,0-.2-.1-.2h-18.6Z"/>
      </g>
    </g>
    <g id="e">
      <path class="st0" d="M69.7,100.7l7.5-16.1c-.7-3.4-1-7.1-1.1-10.9h116.1c-.2-17.6-4.9-32.3-14.2-44.1-13.1-16.7-30.7-25-52.7-25s-38.4,8.1-51.2,24.4c-10.1,12.8-15.1,27.4-15.1,43.7s0,3.6.2,5.4l.3.7,10.2,21.8h0ZM92.8,32.7c9.1-8.1,20-12.2,32.6-12.2s15,1.6,22,4.8,12.6,7.5,16.8,12.8c4.2,5.3,7.5,12.4,9.7,21.2h-96.2c3.4-11.9,8.4-20.8,15.1-26.7h0Z"/>
      <path class="st0" d="M163,109.3c-1.1,1.2-2.2,2.2-3.2,3.1-4.3,3.8-9.6,6.8-15.9,9.1-6.2,2.3-12.6,3.4-19.2,3.4-13.6,0-25-4.8-34.3-14.3-.9-.9-1.7-1.9-2.5-2.8l-7.2,15.6v.2c11.4,11.2,26.6,16.7,45.5,16.7s18-1.5,25.5-4.3c7.5-2.9,14.3-7.1,20.3-12.6.9-.8,1.7-1.6,2.5-2.5l-11.5-11.5h0Z"/>
    </g>
  </g>
  <g>
    <g id="braille">
      <path class="st2" d="M660.9,126.2c2.3,0,4.1-1.9,4.1-4.1s-2.2-4.3-4.3-4.3-4.2,2.2-4.2,4.3,2.2,4.2,4.4,4.1h0Z"/>
      <path class="st2" d="M703.6,117.7c-2.1,0-4.3,2.1-4.3,4.3s2.1,4.2,4.3,4.2,4.1-1.8,4.2-4.1c0-2.1-2.1-4.3-4.2-4.4h0Z"/>
      <path class="st2" d="M750.3,121.9c0-2.1-2.3-4.3-4.4-4.2-2.1,0-4.2,2.3-4.1,4.4.1,2.2,2.3,4.1,4.5,4,2.3,0,4-2,4-4.2h0Z"/>
      <path class="st2" d="M788.4,117.7c-2.1,0-4.3,2.2-4.2,4.3,0,2.2,2.1,4.2,4.4,4.1,2.3,0,4.1-1.9,4.1-4.1s-2.2-4.3-4.3-4.3h0Z"/>
      <path class="st2" d="M533.7,126.2c2.3,0,4.1-1.9,4.1-4.1s-2.2-4.3-4.3-4.3-4.2,2.2-4.2,4.3,2.1,4.2,4.4,4.1h0Z"/>
      <path class="st2" d="M476.7,126.2c2.3.2,4.3-1.7,4.4-4,.2-2.1-2-4.4-4.1-4.4-2.1,0-4.2,2-4.3,4-.2,2.2,1.8,4.3,4.1,4.4Z"/>
      <path class="st2" d="M438.7,122c0-2.1-2.3-4.3-4.3-4.3-2.2,0-4.2,2.3-4.2,4.4.1,2.2,2.3,4.1,4.5,4.1,2.2,0,4.1-2,4.1-4.2h0Z"/>
      <path class="st2" d="M254.6,122c0-2.1-2.3-4.3-4.3-4.3s-4.2,2.2-4.2,4.4c0,2.2,2.2,4.2,4.4,4.1,2.3,0,4.1-1.9,4.1-4.2h0Z"/>
      <path class="st2" d="M292.8,126.2c2.3,0,4-1.9,4.1-4.1,0-2.1-2.2-4.3-4.3-4.3s-4.2,2.2-4.2,4.3c0,2.2,2.2,4.2,4.4,4.1Z"/>
      <path class="st2" d="M339.4,122c0-2.1-2.2-4.3-4.3-4.3s-4.2,2.2-4.2,4.3,2.2,4.2,4.4,4.1c2.2,0,4.1-1.9,4.1-4.1h0Z"/>
      <path class="st2" d="M381.8,121.9c0-2.1-2.4-4.3-4.4-4.2-2.1,0-4.2,2.3-4.1,4.5,0,2.2,2.3,4.1,4.5,4,2.2-.1,4-2,4-4.3h0Z"/>
      <path class="st2" d="M608.5,121.9c0-2.1-2.3-4.3-4.4-4.2-2.1,0-4.2,2.3-4.1,4.4,0,2.2,2.3,4.1,4.5,4.1,2.3,0,4.1-2,4-4.2h0Z"/>
      <path class="st2" d="M774.4,126.2c2.3,0,4.1-1.9,4.1-4.2s-2.2-4.3-4.3-4.3-4.2,2.2-4.2,4.3,2.1,4.2,4.4,4.1h0Z"/>
      <path class="st2" d="M693.7,121.9c0-2.1-2.4-4.3-4.4-4.2-2.1,0-4.2,2.3-4.1,4.5.1,2.2,2.3,4.1,4.5,4,2.3-.1,4.1-2.1,4-4.3h0Z"/>
      <path class="st2" d="M703.5,103.6c-2.1,0-4.2,2.2-4.2,4.3,0,2.1,2.3,4.2,4.4,4.1,2.2,0,4.1-2,4.1-4.2s-2.2-4.2-4.3-4.2h0Z"/>
      <path class="st2" d="M618.5,112.1c2.3,0,4.2-2.1,4.1-4.3,0-2.1-2.1-4.1-4.2-4.1-2.1,0-4.3,2.1-4.3,4.2s2.2,4.3,4.4,4.2h0Z"/>
      <path class="st2" d="M575.9,103.6c-2.1,0-4.2,2.2-4.1,4.3,0,2.1,2.3,4.2,4.4,4.1,2.2-.1,4-2,4-4.2s-2.2-4.3-4.3-4.2h0Z"/>
      <path class="st2" d="M476.9,103.6c-2.2,0-4.3,2.1-4.4,4.2,0,2.1,2.2,4.2,4.4,4.2s4-1.9,4.1-4.1c.2-2.1-2-4.3-4.1-4.3h0Z"/>
      <path class="st2" d="M395.9,107.8c0-2.1-2.3-4.2-4.4-4.2-2.1,0-4.1,2.2-4.1,4.2s2.2,4.2,4.3,4.2,4.2-2,4.2-4.3h0Z"/>
      <path class="st2" d="M349.2,103.6c-2.1,0-4.2,2.2-4.2,4.3.1,2.1,2.3,4.2,4.4,4.1,2.2,0,4-2,4.1-4.2,0-2.1-2.2-4.3-4.3-4.2h0Z"/>
      <path class="st2" d="M311.1,107.9c.1-2.1-2.1-4.3-4.2-4.3s-4.2,2-4.3,4.1,2,4.3,4.2,4.4c2.2.1,4.3-1.9,4.3-4.2h0Z"/>
      <path class="st2" d="M774.3,140.3c2.3,0,4.1-1.8,4.2-4,.1-2.1-2.2-4.5-4.4-4.5-2,0-4.1,2.2-4.1,4.3s2,4.2,4.3,4.2h0Z"/>
      <path class="st2" d="M646.7,140.3c2.2,0,4.1-1.8,4.2-4,0-2.1-2.1-4.4-4.2-4.5-2.1-.1-4.3,2.1-4.3,4.3s2,4.2,4.3,4.2Z"/>
      <path class="st2" d="M604.3,140.3c2.3,0,4.1-1.9,4.2-4.1,0-2.1-2.2-4.3-4.2-4.4-2.1,0-4.3,2.2-4.3,4.3s2.1,4.1,4.3,4.2Z"/>
      <path class="st2" d="M561.8,140.3c2.3,0,4.1-1.7,4.2-4,0-2.1-2.2-4.5-4.4-4.5s-4.1,2.2-4.1,4.2c0,2.2,2,4.2,4.3,4.2h0Z"/>
      <path class="st2" d="M462.7,140.3c2.3,0,4.2-1.7,4.3-4,0-2.2-2.3-4.5-4.4-4.5-2,0-4.1,2.2-4.1,4.3s2,4.2,4.2,4.2h0Z"/>
      <path class="st2" d="M420.3,140.3c2.3,0,4.2-1.7,4.2-4,.1-2.1-2.2-4.5-4.4-4.5s-4.1,2.2-4.1,4.2c0,2.2,2,4.2,4.3,4.2h0Z"/>
      <path class="st2" d="M335.2,140.3c2.3,0,4.1-1.9,4.1-4.1s-2.3-4.3-4.3-4.4c-2.1,0-4.2,2.3-4.2,4.4s2.1,4.1,4.4,4.1h0Z"/>
      <path class="st2" d="M250.4,140.3c2.3,0,4.1-1.9,4.1-4.1,0-2.1-2.3-4.3-4.3-4.4-2.1,0-4.2,2.3-4.2,4.4s2.1,4.1,4.4,4.1Z"/>
      <path class="st2" d="M608.5,107.9c0-2.1-2.1-4.3-4.3-4.3s-4.1,2-4.2,4.1c0,2.2,2.1,4.4,4.4,4.4,2.2,0,4.1-2,4.1-4.2h0Z"/>
      <path class="st2" d="M650.9,107.8c0-2.1-2.2-4.2-4.4-4.2-2.2,0-4.2,2.2-4.1,4.4,0,2.1,2.3,4.2,4.5,4.1,2.2-.1,4.1-2.1,4-4.3h0Z"/>
      <path class="st2" d="M566.1,107.9c0-2.1-2.1-4.3-4.2-4.3-2.1,0-4.2,1.9-4.3,4.1-.1,2.2,2.1,4.4,4.4,4.4s4.1-1.9,4.2-4.1h0Z"/>
      <path class="st2" d="M736.1,107.9c0-2.1-2.2-4.3-4.3-4.3s-4.2,2.1-4.2,4.3,2.3,4.2,4.4,4.2c2.2,0,4.1-2,4.1-4.2h0Z"/>
      <path class="st2" d="M774.2,112.1c2.1,0,4.1-1.8,4.2-4,.1-2.1-2-4.3-4.1-4.4-2.2-.1-4.3,2-4.3,4.2s2,4.2,4.2,4.3h0Z"/>
      <path class="st2" d="M519.3,103.6c-2.2,0-4.2,2.2-4.1,4.4,0,2.1,2.3,4.2,4.4,4.1,2.2-.1,4.1-2.1,4-4.3,0-2.1-2.2-4.3-4.3-4.2h0Z"/>
      <path class="st2" d="M467,107.8c0-2.1-2.3-4.2-4.4-4.2-2.2,0-4.2,2.2-4.1,4.4,0,2.1,2.4,4.2,4.5,4.1,2.2-.1,4-2.1,4-4.3h0Z"/>
      <path class="st2" d="M420.2,103.6c-2.2,0-4.2,2.2-4.1,4.4,0,2.1,2.3,4.2,4.4,4.1,2.2-.1,4.1-2.1,4.1-4.3,0-2.1-2.2-4.3-4.4-4.2h0Z"/>
      <path class="st2" d="M250.3,103.6c-2.2,0-4.2,2.1-4.2,4.3s2.2,4.2,4.4,4.2,4.1-2,4.1-4.2c0-2.1-2.1-4.3-4.3-4.3h0Z"/>
      <path class="st2" d="M264.5,140.3c2.3,0,4.1-1.8,4.2-4,0-2.1-2.1-4.4-4.2-4.4-2,0-4.3,2.2-4.3,4.3,0,2.2,2.1,4.2,4.3,4.2h0Z"/>
      <path class="st2" d="M703.7,140.3c2.3,0,4.1-1.8,4.2-4,0-2.1-2.2-4.4-4.2-4.4-2,0-4.3,2.2-4.3,4.3s2.1,4.2,4.3,4.2h0Z"/>
      <path class="st1" d="M660.9,126.2c-2.2,0-4.4-2-4.4-4.1,0-2.1,2.2-4.3,4.2-4.3s4.3,2.2,4.3,4.3c0,2.3-1.9,4.1-4.1,4.1h0Z"/>
      <path class="st1" d="M703.6,117.7c2.1,0,4.3,2.3,4.2,4.4-.1,2.3-1.9,4.1-4.2,4.1s-4.3-2-4.3-4.2,2.2-4.3,4.3-4.3h0Z"/>
      <path class="st1" d="M750.3,121.9c0,2.3-1.7,4.2-4,4.2-2.3.1-4.4-1.9-4.5-4,0-2.2,2.1-4.4,4.1-4.4,2.1,0,4.3,2.1,4.4,4.2h0Z"/>
      <path class="st1" d="M788.4,117.7c2.1,0,4.3,2.3,4.3,4.3s-1.9,4.1-4.1,4.1-4.4-2-4.4-4.1,2.1-4.4,4.2-4.3h0Z"/>
      <path class="st1" d="M533.7,126.2c-2.3,0-4.4-2-4.4-4.1s2.1-4.4,4.2-4.3c2.1,0,4.3,2.2,4.3,4.3s-1.9,4.1-4.1,4.1h0Z"/>
      <path class="st1" d="M476.7,126.2c-2.3-.2-4.2-2.3-4.1-4.4.2-2.1,2.3-4.1,4.3-4,2.1,0,4.2,2.4,4.1,4.4,0,2.4-2.1,4.2-4.4,4Z"/>
      <path class="st1" d="M438.7,122c0,2.2-1.9,4.1-4.1,4.2-2.2.1-4.4-1.9-4.5-4.1,0-2.1,2.1-4.4,4.2-4.4s4.3,2.2,4.3,4.3h0Z"/>
      <path class="st1" d="M254.6,122c0,2.3-1.9,4.1-4.1,4.2-2.3,0-4.4-2-4.4-4.1,0-2.2,2.1-4.4,4.2-4.4s4.3,2.3,4.3,4.3h0Z"/>
      <path class="st1" d="M292.8,126.2c-2.3,0-4.4-2-4.4-4.1s2.1-4.4,4.2-4.3c2.1,0,4.3,2.3,4.3,4.3,0,2.3-1.8,4.1-4.1,4.1Z"/>
      <path class="st1" d="M339.4,122c0,2.3-1.9,4.1-4.1,4.1s-4.4-2-4.4-4.1,2.1-4.4,4.2-4.3c2.1,0,4.3,2.3,4.3,4.3h0Z"/>
      <path class="st1" d="M381.8,121.9c0,2.3-1.8,4.2-4,4.3-2.3.1-4.4-1.9-4.5-4-.1-2.2,2-4.4,4.1-4.5,2.1,0,4.4,2.1,4.4,4.2h0Z"/>
      <path class="st1" d="M608.5,121.9c0,2.3-1.8,4.2-4,4.2-2.2.1-4.4-1.9-4.5-4.1,0-2.2,2-4.4,4.1-4.4,2.1,0,4.3,2.2,4.4,4.2h0Z"/>
      <path class="st1" d="M774.4,126.2c-2.3,0-4.4-2-4.4-4.1s2.1-4.4,4.2-4.3c2.1,0,4.3,2.3,4.3,4.3,0,2.3-1.9,4.1-4.1,4.2h0Z"/>
      <path class="st1" d="M693.7,121.9c.1,2.2-1.7,4.2-4,4.3s-4.4-1.8-4.5-4c-.1-2.2,2-4.4,4.1-4.5,2.1,0,4.4,2.1,4.4,4.2h0Z"/>
      <path class="st1" d="M703.5,103.6c2.2,0,4.3,2.1,4.3,4.2s-1.9,4.2-4.1,4.2c-2.1,0-4.4-2.1-4.4-4.1,0-2.2,2.1-4.3,4.2-4.3h0Z"/>
      <path class="st1" d="M618.5,112.1c-2.2,0-4.4-2.1-4.4-4.2s2.2-4.3,4.3-4.2c2.1,0,4.1,2.1,4.2,4.1.1,2.3-1.9,4.3-4.1,4.3h0Z"/>
      <path class="st1" d="M575.9,103.6c2.2,0,4.3,2.1,4.3,4.2s-1.8,4.2-4,4.2c-2.2,0-4.4-2-4.4-4.1-.1-2.1,2-4.3,4.1-4.3h0Z"/>
      <path class="st1" d="M476.9,103.6c2.1,0,4.3,2.3,4.1,4.3,0,2.3-1.9,4.1-4.1,4.1s-4.4-2.1-4.4-4.2,2.2-4.3,4.4-4.2h0Z"/>
      <path class="st1" d="M395.9,107.8c0,2.3-1.9,4.3-4.2,4.3s-4.4-2.1-4.3-4.2c0-2.1,2.1-4.2,4.1-4.2,2.2,0,4.4,2,4.4,4.2h0Z"/>
      <path class="st1" d="M349.2,103.6c2.2,0,4.3,2.1,4.3,4.2s-1.9,4.2-4.1,4.2c-2.2,0-4.4-2.1-4.4-4.1,0-2.1,2.1-4.3,4.2-4.3h0Z"/>
      <path class="st1" d="M311.1,107.9c0,2.3-2.1,4.3-4.3,4.2s-4.3-2.3-4.2-4.4c.1-2.1,2.2-4.1,4.3-4.1,2.2,0,4.3,2.2,4.2,4.3h0Z"/>
      <path class="st1" d="M774.3,140.3c-2.3,0-4.3-2-4.3-4.2,0-2.1,2.1-4.2,4.1-4.3,2.2,0,4.5,2.4,4.4,4.5-.1,2.3-2,4.1-4.2,4h0Z"/>
      <path class="st1" d="M646.7,140.3c-2.3,0-4.3-2-4.3-4.2s2.3-4.4,4.3-4.3,4.2,2.4,4.2,4.5c-.1,2.2-2,4-4.2,4Z"/>
      <path class="st1" d="M604.3,140.3c-2.3,0-4.3-2-4.3-4.2s2.2-4.4,4.3-4.3,4.3,2.4,4.2,4.4c0,2.2-1.9,4.1-4.2,4.1Z"/>
      <path class="st1" d="M561.8,140.3c-2.3,0-4.3-2.1-4.3-4.2,0-2.1,2.2-4.2,4.1-4.2s4.5,2.4,4.4,4.5c-.1,2.3-2,4-4.2,4h0Z"/>
      <path class="st1" d="M462.7,140.3c-2.3,0-4.3-2-4.2-4.2,0-2.1,2.2-4.2,4.1-4.3,2.1,0,4.4,2.4,4.4,4.5-.1,2.3-2,4-4.3,4h0Z"/>
      <path class="st1" d="M420.3,140.3c-2.3,0-4.3-2.1-4.3-4.2,0-2.1,2.2-4.2,4.1-4.2s4.5,2.4,4.4,4.5c-.1,2.3-2,4-4.2,4h0Z"/>
      <path class="st1" d="M335.2,140.3c-2.3,0-4.4-1.9-4.4-4.1s2.2-4.4,4.2-4.4,4.3,2.3,4.3,4.4-1.9,4.1-4.1,4.1h0Z"/>
      <path class="st1" d="M250.4,140.3c-2.3,0-4.4-1.9-4.4-4.1s2.1-4.4,4.2-4.4,4.3,2.3,4.3,4.4-1.9,4.1-4.1,4.1Z"/>
      <path class="st1" d="M608.5,107.9c0,2.2-2,4.2-4.1,4.2s-4.4-2.2-4.4-4.4c.1-2.1,2.2-4.1,4.2-4.1,2.2,0,4.3,2.2,4.3,4.3h0Z"/>
      <path class="st1" d="M650.9,107.8c0,2.2-1.8,4.2-4,4.3-2.2.1-4.4-2-4.5-4.1,0-2.2,2-4.4,4.1-4.4s4.3,2.1,4.4,4.2h0Z"/>
      <path class="st1" d="M566.1,107.9c-.1,2.2-2,4.1-4.2,4.1s-4.4-2.2-4.4-4.4c.1-2.1,2.2-4.1,4.3-4.1,2.2,0,4.3,2.2,4.2,4.3h0Z"/>
      <path class="st1" d="M736.1,107.9c0,2.2-1.9,4.2-4.1,4.2-2.2,0-4.4-2-4.4-4.2,0-2.2,2.1-4.3,4.2-4.3,2.2,0,4.3,2.2,4.3,4.3h0Z"/>
      <path class="st1" d="M774.2,112.1c-2.2,0-4.3-2.2-4.2-4.3,0-2.2,2.2-4.3,4.3-4.2,2.2.1,4.2,2.3,4.1,4.4-.1,2.2-2.1,4.1-4.2,4h0Z"/>
      <path class="st1" d="M519.3,103.6c2.2,0,4.3,2.1,4.3,4.2s-1.8,4.2-4,4.3c-2.2,0-4.4-2-4.4-4.1-.1-2.2,2-4.4,4.1-4.4h0Z"/>
      <path class="st1" d="M467,107.8c0,2.2-1.8,4.2-4,4.3-2.2.1-4.4-1.9-4.5-4.1-.1-2.2,2-4.4,4.1-4.4,2.1,0,4.3,2.1,4.4,4.2h0Z"/>
      <path class="st1" d="M420.2,103.6c2.2,0,4.4,2.1,4.4,4.2s-1.9,4.2-4.1,4.3c-2.1,0-4.4-2-4.4-4.1,0-2.2,2-4.4,4.1-4.4h0Z"/>
      <path class="st1" d="M250.3,103.6c2.2,0,4.3,2.2,4.3,4.3,0,2.2-2,4.2-4.1,4.2s-4.4-2.1-4.4-4.2,2.1-4.3,4.2-4.3h0Z"/>
      <path class="st1" d="M264.5,140.3c-2.3,0-4.4-2-4.3-4.2,0-2.1,2.3-4.4,4.3-4.3s4.2,2.4,4.2,4.4c0,2.3-1.9,4.1-4.2,4h0Z"/>
      <path class="st1" d="M703.7,140.3c-2.3,0-4.3-2-4.3-4.2s2.3-4.4,4.3-4.3c2.1,0,4.2,2.4,4.2,4.4-.1,2.2-1.9,4.1-4.2,4h0Z"/>
    </g>
    <g>
      <path class="st2" d="M243.2,20.6h5.3l13,28.3,12.9-28.3h5.4l-17.8,38.8h-.9l-17.9-38.8h0Z"/>
      <path class="st2" d="M289.1,4.6c1.2,0,2.1.4,2.9,1.2s1.2,1.8,1.2,2.9-.4,2.1-1.2,2.9c-.8.8-1.8,1.2-2.9,1.2s-2.1-.4-2.9-1.2c-.8-.8-1.2-1.8-1.2-2.9s.4-2.1,1.2-2.9c.8-.8,1.8-1.2,2.9-1.2ZM286.6,20.6h5v38.8h-5V20.6Z"/>
      <path class="st2" d="M321.5,24.8l-3.2,3.3c-2.7-2.6-5.3-3.9-7.8-3.9s-3,.6-4.2,1.6-1.7,2.3-1.7,3.7.5,2.5,1.4,3.6c1,1.2,3,2.5,6,4.1,3.7,1.9,6.3,3.8,7.6,5.6,1.3,1.8,2,3.8,2,6.1s-1.1,5.9-3.4,8.1c-2.2,2.2-5.1,3.3-8.4,3.3s-4.4-.5-6.4-1.5-3.7-2.3-5.1-4l3.1-3.6c2.6,2.9,5.3,4.3,8.1,4.3s3.7-.7,5.1-1.9,2.1-2.8,2.1-4.5-.5-2.7-1.4-3.8c-.9-1.1-3-2.5-6.3-4.1-3.5-1.8-5.9-3.6-7.2-5.4s-1.9-3.8-1.9-6,1-5.4,3-7.4,4.5-2.9,7.6-2.9,7.2,1.8,10.8,5.3h.1Z"/>
      <path class="st2" d="M332.1,4.6c1.2,0,2.1.4,2.9,1.2s1.2,1.8,1.2,2.9-.4,2.1-1.2,2.9c-.8.8-1.8,1.2-2.9,1.2s-2.1-.4-2.9-1.2c-.8-.8-1.2-1.8-1.2-2.9s.4-2.1,1.2-2.9c.8-.8,1.8-1.2,2.9-1.2ZM329.6,20.6h5v38.8h-5V20.6Z"/>
      <path class="st2" d="M363.3,19.6c6,0,11,2.2,14.8,6.5,3.6,3.9,5.4,8.6,5.4,14s-1.9,10.2-5.7,14.2c-3.8,4-8.6,6.1-14.5,6.1s-10.8-2-14.6-6.1-5.7-8.8-5.7-14.2,1.8-10.1,5.4-14c3.9-4.3,8.9-6.5,14.9-6.5h0ZM363.3,24.5c-4.1,0-7.7,1.5-10.7,4.6s-4.5,6.8-4.5,11.1.7,5.4,2,7.8c1.4,2.4,3.2,4.3,5.5,5.6,2.3,1.3,4.8,2,7.6,2s5.3-.7,7.6-2c2.3-1.3,4.1-3.2,5.5-5.6s2-5.1,2-7.8c0-4.3-1.5-8.1-4.5-11.1-3-3.1-6.6-4.6-10.7-4.6h.1Z"/>
      <path class="st2" d="M392.8,20.6h5v7c2-2.7,4.2-4.6,6.6-6,2.4-1.3,5.1-2,7.9-2s5.5.8,7.7,2.2,3.9,3.5,5,6c1.1,2.5,1.6,6.4,1.6,11.7v20h-5v-18.5c0-4.5-.2-7.5-.6-8.9-.6-2.6-1.7-4.5-3.3-5.8s-3.8-2-6.4-2-5.7,1-8.1,3c-2.4,2-4,4.5-4.7,7.4-.5,1.9-.7,5.5-.7,10.6v14.2h-5V20.6Z"/>
      <path class="st2" d="M490.3,46.6l4.2,2.2c-1.4,2.7-3,4.9-4.8,6.6s-3.8,2.9-6.1,3.8-4.8,1.3-7.7,1.3c-6.3,0-11.3-2.1-14.8-6.2-3.6-4.1-5.4-8.8-5.4-14.1s1.5-9.3,4.5-13.2c3.8-4.9,8.9-7.4,15.4-7.4s11.9,2.5,15.9,7.5c2.8,3.5,4.2,8,4.3,13.3h-34.9c.1,4.5,1.5,8.2,4.3,11.1,2.8,2.9,6.2,4.3,10.3,4.3s3.9-.4,5.8-1c1.9-.7,3.5-1.6,4.7-2.7,1.3-1.1,2.7-3,4.2-5.5h0ZM490.3,36.1c-.7-2.7-1.6-4.8-2.9-6.4-1.3-1.6-3-2.9-5.1-3.8s-4.3-1.5-6.6-1.5c-3.8,0-7.1,1.2-9.8,3.7-2,1.8-3.5,4.4-4.5,8h29Z"/>
      <path class="st2" d="M505.1,20.6h5v6.7c1.7-2.5,3.5-4.3,5.4-5.4,2.5-1.5,5.2-2.3,8-2.3s3.7.4,5.4,1.1c1.7.8,3.1,1.7,4.1,2.9s2,3,2.8,5.3c1.7-3,3.7-5.4,6.2-6.9s5.2-2.4,8-2.4,5.1.7,7.1,2,3.6,3.2,4.6,5.7c1,2.4,1.5,6.1,1.5,10.9v21.2h-5.1v-21.2c0-4.1-.3-7-.9-8.6-.6-1.6-1.6-2.8-3-3.8s-3.1-1.4-5.2-1.4-4.6.7-6.6,2.1c-2,1.4-3.5,3.3-4.4,5.7-.9,2.4-1.4,6.4-1.4,11.9v15.2h-5v-19.9c0-4.7-.3-7.9-.9-9.5-.6-1.7-1.6-3-3-4-1.5-1-3.2-1.5-5.2-1.5s-4.4.7-6.5,2.1c-2,1.4-3.5,3.3-4.4,5.6-1,2.4-1.5,6-1.5,10.8v16.5h-5V20.5h-.1Z"/>
      <path class="st2" d="M573.7,20.6h5v7.1c2-2.7,4.2-4.7,6.8-6.1s5.5-2,8.6-2c5.5,0,10.3,2,14.1,6,3.9,4,5.9,8.7,5.9,14.3s-1.9,10.6-5.8,14.5c-3.9,4-8.6,6-14,6s-5.9-.7-8.5-1.9c-2.6-1.3-4.9-3.2-7-5.8v20.9h-5V20.6h0ZM593.7,24.4c-4.3,0-8,1.5-10.9,4.5-2.9,3-4.4,6.8-4.4,11.3s.7,5.6,2,7.9c1.3,2.4,3.2,4.2,5.7,5.6,2.5,1.4,5.1,2.1,7.8,2.1s5.2-.7,7.6-2.1c2.4-1.4,4.2-3.3,5.7-5.8,1.4-2.5,2.1-5.1,2.1-7.8s-.7-5.4-2.1-7.8c-1.4-2.5-3.3-4.4-5.6-5.8-2.3-1.4-4.9-2.1-7.7-2.1h0Z"/>
      <path class="st2" d="M641.9,19.6c6,0,11,2.2,14.8,6.5,3.6,3.9,5.4,8.6,5.4,14s-1.9,10.2-5.7,14.2c-3.8,4-8.6,6.1-14.5,6.1s-10.8-2-14.6-6.1-5.7-8.8-5.7-14.2,1.8-10.1,5.4-14c3.9-4.3,8.9-6.5,14.9-6.5h0ZM641.9,24.5c-4.1,0-7.7,1.5-10.7,4.6-3,3.1-4.5,6.8-4.5,11.1s.7,5.4,2,7.8c1.4,2.4,3.2,4.3,5.5,5.6s4.8,2,7.6,2,5.3-.7,7.6-2c2.3-1.3,4.1-3.2,5.5-5.6,1.4-2.4,2-5.1,2-7.8,0-4.3-1.5-8.1-4.5-11.1-3-3.1-6.6-4.6-10.7-4.6h.1Z"/>
      <path class="st2" d="M666.2,20.6h5.2l11.9,28.2,12.4-28.2h.9l12.5,28.2,12.1-28.2h5.2l-16.9,38.8h-.9l-12.4-27.8-12.4,27.8h-.9l-16.6-38.8h0Z"/>
      <path class="st2" d="M764.8,46.6l4.2,2.2c-1.4,2.7-3,4.9-4.8,6.6s-3.8,2.9-6.1,3.8-4.8,1.3-7.7,1.3c-6.3,0-11.3-2.1-14.8-6.2-3.6-4.1-5.4-8.8-5.4-14.1s1.5-9.3,4.5-13.2c3.8-4.9,8.9-7.4,15.4-7.4s11.9,2.5,15.9,7.5c2.8,3.5,4.2,8,4.3,13.3h-34.9c.1,4.5,1.5,8.2,4.3,11.1,2.8,2.9,6.2,4.3,10.3,4.3s3.9-.4,5.8-1c1.9-.7,3.5-1.6,4.7-2.7,1.3-1.1,2.7-3,4.2-5.5h0ZM764.8,36.1c-.7-2.7-1.6-4.8-2.9-6.4-1.3-1.6-3-2.9-5.1-3.8s-4.3-1.5-6.6-1.5c-3.8,0-7.1,1.2-9.8,3.7-2,1.8-3.5,4.4-4.5,8h29Z"/>
      <path class="st2" d="M777.7,20.6h5.1v5.7c1.5-2.2,3.1-3.9,4.8-5,1.7-1.1,3.4-1.7,5.3-1.7s2.9.5,4.4,1.3l-2.6,4.2c-1.1-.5-1.9-.7-2.6-.7-1.7,0-3.3.7-4.8,2.1-1.6,1.4-2.7,3.5-3.5,6.4-.6,2.2-.9,6.7-.9,13.4v13.1h-5.1V20.6h0Z"/>
    </g>
    <rect class="st2" x="233.8" y="80" width="571.2" height="5.7" rx=".8" ry=".8"/>
  </g>
</svg>